<svg xmlns="http://www.w3.org/2000/svg" style="display:none">
  <symbol id="ph-arrow-clockwise" viewBox="0 0 256 256"><path d="M240,56v48a8,8,0,0,1-8,8H184a8,8,0,0,1,0-16H211.4L184.81,71.64l-.25-.24a80,80,0,1,0-1.67,114.78,8,8,0,0,1,11,11.63A95.44,95.44,0,0,1,128,224h-1.32A96,96,0,1,1,195.75,60L224,85.8V56a8,8,0,1,1,16,0Z"/></symbol>
  <symbol id="ph-arrow-left" viewBox="0 0 256 256"><path d="M224,128a8,8,0,0,1-8,8H59.31l58.35,58.34a8,8,0,0,1-11.32,11.32l-72-72a8,8,0,0,1,0-11.32l72-72a8,8,0,0,1,11.32,11.32L59.31,120H216A8,8,0,0,1,224,128Z"/></symbol>
  <symbol id="ph-arrow-up-right" viewBox="0 0 256 256"><path d="M200,64V168a8,8,0,0,1-16,0V83.31L69.66,197.66a8,8,0,0,1-11.32-11.32L172.69,72H88a8,8,0,0,1,0-16H192A8,8,0,0,1,200,64Z"/></symbol>
  <symbol id="ph-arrows-clockwise" viewBox="0 0 256 256"><path d="M224,48V96a8,8,0,0,1-8,8H168a8,8,0,0,1,0-16h28.69L182.06,73.37a79.56,79.56,0,0,0-56.13-23.43h-.45A79.52,79.52,0,0,0,69.59,72.71,8,8,0,0,1,58.41,61.27a96,96,0,0,1,135,.79L208,76.69V48a8,8,0,0,1,16,0ZM186.41,183.29a80,80,0,0,1-112.47-.66L59.31,168H88a8,8,0,0,0,0-16H40a8,8,0,0,0-8,8v48a8,8,0,0,0,16,0V179.31l14.63,14.63A95.43,95.43,0,0,0,130,222.06h.53a95.36,95.36,0,0,0,67.07-27.33,8,8,0,0,0-11.18-11.44Z"/></symbol>
  <symbol id="ph-bell" viewBox="0 0 256 256"><path d="M221.8,175.94C216.25,166.38,208,139.33,208,104a80,80,0,1,0-160,0c0,35.34-8.26,62.38-13.81,71.94A16,16,0,0,0,48,200H88.81a40,40,0,0,0,78.38,0H208a16,16,0,0,0,13.8-24.06ZM128,216a24,24,0,0,1-22.62-16h45.24A24,24,0,0,1,128,216ZM48,184c7.7-13.24,16-43.92,16-80a64,64,0,1,1,128,0c0,36.05,8.28,66.73,16,80Z"/></symbol>
  <symbol id="ph-buildings" viewBox="0 0 256 256"><path d="M240,208H224V96a16,16,0,0,0-16-16H144V32a16,16,0,0,0-24.88-13.32L39.12,72A16,16,0,0,0,32,85.34V208H16a8,8,0,0,0,0,16H240a8,8,0,0,0,0-16ZM208,96V208H144V96ZM48,85.34,128,32V208H48ZM112,112v16a8,8,0,0,1-16,0V112a8,8,0,1,1,16,0Zm-32,0v16a8,8,0,0,1-16,0V112a8,8,0,1,1,16,0Zm0,56v16a8,8,0,0,1-16,0V168a8,8,0,0,1,16,0Zm32,0v16a8,8,0,0,1-16,0V168a8,8,0,0,1,16,0Z"/></symbol>
  <symbol id="ph-caret-left" viewBox="0 0 256 256"><path d="M165.66,202.34a8,8,0,0,1-11.32,11.32l-80-80a8,8,0,0,1,0-11.32l80-80a8,8,0,0,1,11.32,11.32L91.31,128Z"/></symbol>
  <symbol id="ph-caret-right" viewBox="0 0 256 256"><path d="M181.66,133.66l-80,80a8,8,0,0,1-11.32-11.32L164.69,128,90.34,53.66a8,8,0,0,1,11.32-11.32l80,80A8,8,0,0,1,181.66,133.66Z"/></symbol>
  <symbol id="ph-chart-bar" viewBox="0 0 256 256"><path d="M224,200h-8V40a8,8,0,0,0-8-8H152a8,8,0,0,0-8,8V80H96a8,8,0,0,0-8,8v40H48a8,8,0,0,0-8,8v64H32a8,8,0,0,0,0,16H224a8,8,0,0,0,0-16ZM160,48h40V200H160ZM104,96h40V200H104ZM56,144H88v56H56Z"/></symbol>
  <symbol id="ph-chat-circle" viewBox="0 0 256 256"><path d="M128,24A104,104,0,0,0,36.18,176.88L24.83,210.93a16,16,0,0,0,20.24,20.24l34.05-11.35A104,104,0,1,0,128,24Zm0,192a87.87,87.87,0,0,1-44.06-11.81,8,8,0,0,0-6.54-.67L40,216,52.47,178.6a8,8,0,0,0-.66-6.54A88,88,0,1,1,128,216Z"/></symbol>
  <symbol id="ph-check" viewBox="0 0 256 256"><path d="M229.66,77.66l-128,128a8,8,0,0,1-11.32,0l-56-56a8,8,0,0,1,11.32-11.32L96,188.69,218.34,66.34a8,8,0,0,1,11.32,11.32Z"/></symbol>
  <symbol id="ph-check-circle" viewBox="0 0 256 256"><path d="M173.66,98.34a8,8,0,0,1,0,11.32l-56,56a8,8,0,0,1-11.32,0l-24-24a8,8,0,0,1,11.32-11.32L112,148.69l50.34-50.35A8,8,0,0,1,173.66,98.34ZM232,128A104,104,0,1,1,128,24,104.11,104.11,0,0,1,232,128Zm-16,0a88,88,0,1,0-88,88A88.1,88.1,0,0,0,216,128Z"/></symbol>
  <symbol id="ph-clipboard-text" viewBox="0 0 256 256"><path d="M168,152a8,8,0,0,1-8,8H96a8,8,0,0,1,0-16h64A8,8,0,0,1,168,152Zm-8-40H96a8,8,0,0,0,0,16h64a8,8,0,0,0,0-16Zm56-64V216a16,16,0,0,1-16,16H56a16,16,0,0,1-16-16V48A16,16,0,0,1,56,32H92.26a47.92,47.92,0,0,1,71.48,0H200A16,16,0,0,1,216,48ZM96,64h64a32,32,0,0,0-64,0ZM200,48H173.25A47.93,47.93,0,0,1,176,64v8a8,8,0,0,1-8,8H88a8,8,0,0,1-8-8V64a47.93,47.93,0,0,1,2.75-16H56V216H200Z"/></symbol>
  <symbol id="ph-credit-card" viewBox="0 0 256 256"><path d="M224,48H32A16,16,0,0,0,16,64V192a16,16,0,0,0,16,16H224a16,16,0,0,0,16-16V64A16,16,0,0,0,224,48Zm0,16V88H32V64Zm0,128H32V104H224v88Zm-16-24a8,8,0,0,1-8,8H168a8,8,0,0,1,0-16h32A8,8,0,0,1,208,168Zm-64,0a8,8,0,0,1-8,8H120a8,8,0,0,1,0-16h16A8,8,0,0,1,144,168Z"/></symbol>
  <symbol id="ph-currency-dollar" viewBox="0 0 256 256"><path d="M152,120H136V56h8a32,32,0,0,1,32,32,8,8,0,0,0,16,0,48.05,48.05,0,0,0-48-48h-8V24a8,8,0,0,0-16,0V40h-8a48,48,0,0,0,0,96h8v64H104a32,32,0,0,1-32-32,8,8,0,0,0-16,0,48.05,48.05,0,0,0,48,48h16v16a8,8,0,0,0,16,0V216h16a48,48,0,0,0,0-96Zm-40,0a32,32,0,0,1,0-64h8v64Zm40,80H136V136h16a32,32,0,0,1,0,64Z"/></symbol>
  <symbol id="ph-device-mobile" viewBox="0 0 256 256"><path d="M176,16H80A24,24,0,0,0,56,40V216a24,24,0,0,0,24,24h96a24,24,0,0,0,24-24V40A24,24,0,0,0,176,16ZM72,64H184V192H72Zm8-32h96a8,8,0,0,1,8,8v8H72V40A8,8,0,0,1,80,32Zm96,192H80a8,8,0,0,1-8-8v-8H184v8A8,8,0,0,1,176,224Z"/></symbol>
  <symbol id="ph-device-tablet" viewBox="0 0 256 256"><path d="M192,24H64A24,24,0,0,0,40,48V208a24,24,0,0,0,24,24H192a24,24,0,0,0,24-24V48A24,24,0,0,0,192,24ZM56,72H200V184H56Zm8-32H192a8,8,0,0,1,8,8v8H56V48A8,8,0,0,1,64,40ZM192,216H64a8,8,0,0,1-8-8v-8H200v8A8,8,0,0,1,192,216Z"/></symbol>
  <symbol id="ph-download-simple" viewBox="0 0 256 256"><path d="M224,144v64a8,8,0,0,1-8,8H40a8,8,0,0,1-8-8V144a8,8,0,0,1,16,0v56H208V144a8,8,0,0,1,16,0Zm-101.66,5.66a8,8,0,0,0,11.32,0l40-40a8,8,0,0,0-11.32-11.32L136,124.69V32a8,8,0,0,0-16,0v92.69L93.66,98.34a8,8,0,0,0-11.32,11.32Z"/></symbol>
  <symbol id="ph-envelope-simple" viewBox="0 0 256 256"><path d="M224,48H32a8,8,0,0,0-8,8V192a16,16,0,0,0,16,16H216a16,16,0,0,0,16-16V56A8,8,0,0,0,224,48ZM203.43,64,128,133.15,52.57,64ZM216,192H40V74.19l82.59,75.71a8,8,0,0,0,10.82,0L216,74.19V192Z"/></symbol>
  <symbol id="ph-eye" viewBox="0 0 256 256"><path d="M247.31,124.76c-.35-.79-8.82-19.58-27.65-38.41C194.57,61.26,162.88,48,128,48S61.43,61.26,36.34,86.35C17.51,105.18,9,124,8.69,124.76a8,8,0,0,0,0,6.5c.35.79,8.82,19.57,27.65,38.4C61.43,194.74,93.12,208,128,208s66.57-13.26,91.66-38.34c18.83-18.83,27.3-37.61,27.65-38.4A8,8,0,0,0,247.31,124.76ZM128,192c-30.78,0-57.67-11.19-79.93-33.25A133.47,133.47,0,0,1,25,128,133.33,133.33,0,0,1,48.07,97.25C70.33,75.19,97.22,64,128,64s57.67,11.19,79.93,33.25A133.46,133.46,0,0,1,231.05,128C223.84,141.46,192.43,192,128,192Zm0-112a48,48,0,1,0,48,48A48.05,48.05,0,0,0,128,80Zm0,80a32,32,0,1,1,32-32A32,32,0,0,1,128,160Z"/></symbol>
  <symbol id="ph-fire" viewBox="0 0 256 256"><path d="M183.89,153.34a57.6,57.6,0,0,1-46.56,46.55A8.75,8.75,0,0,1,136,200a8,8,0,0,1-1.32-15.89c16.57-2.79,30.63-16.85,33.44-33.45a8,8,0,0,1,15.78,2.68ZM216,144a88,88,0,0,1-176,0c0-27.92,11-56.47,32.66-84.85a8,8,0,0,1,11.93-.89l24.12,23.41,22-60.41a8,8,0,0,1,12.63-3.41C165.21,36,216,84.55,216,144Zm-16,0c0-46.09-35.79-85.92-58.21-106.33L119.52,98.74a8,8,0,0,1-13.09,3L80.06,76.16C64.09,99.21,56,122,56,144a72,72,0,0,0,144,0Z"/></symbol>
  <symbol id="ph-gear" viewBox="0 0 256 256"><path d="M128,80a48,48,0,1,0,48,48A48.05,48.05,0,0,0,128,80Zm0,80a32,32,0,1,1,32-32A32,32,0,0,1,128,160Zm88-29.84q.06-2.16,0-4.32l14.92-18.64a8,8,0,0,0,1.48-7.06,107.21,107.21,0,0,0-10.88-26.25,8,8,0,0,0-6-3.93l-23.72-2.64q-1.48-1.56-3-3L186,40.54a8,8,0,0,0-3.94-6,107.71,107.71,0,0,0-26.25-10.87,8,8,0,0,0-7.06,1.49L130.16,40Q128,40,125.84,40L107.2,25.11a8,8,0,0,0-7.06-1.48A107.6,107.6,0,0,0,73.89,34.51a8,8,0,0,0-3.93,6L67.32,64.27q-1.56,1.49-3,3L40.54,70a8,8,0,0,0-6,3.94,107.71,107.71,0,0,0-10.87,26.25,8,8,0,0,0,1.49,7.06L40,125.84Q40,128,40,130.16L25.11,148.8a8,8,0,0,0-1.48,7.06,107.21,107.21,0,0,0,10.88,26.25,8,8,0,0,0,6,3.93l23.72,2.64q1.49,1.56,3,3L70,215.46a8,8,0,0,0,3.94,6,107.71,107.71,0,0,0,26.25,10.87,8,8,0,0,0,7.06-1.49L125.84,216q2.16.06,4.32,0l18.64,14.92a8,8,0,0,0,7.06,1.48,107.21,107.21,0,0,0,26.25-10.88,8,8,0,0,0,3.93-6l2.64-23.72q1.56-1.48,3-3L215.46,186a8,8,0,0,0,6-3.94,107.71,107.71,0,0,0,10.87-26.25,8,8,0,0,0-1.49-7.06Zm-16.1-6.5a73.93,73.93,0,0,1,0,8.68,8,8,0,0,0,1.74,5.48l14.19,17.73a91.57,91.57,0,0,1-6.23,15L187,173.11a8,8,0,0,0-5.1,2.64,74.11,74.11,0,0,1-6.14,6.14,8,8,0,0,0-2.64,5.1l-2.51,22.58a91.32,91.32,0,0,1-15,6.23l-17.74-14.19a8,8,0,0,0-5-1.75h-.48a73.93,73.93,0,0,1-8.68,0,8,8,0,0,0-5.48,1.74L100.45,215.8a91.57,91.57,0,0,1-15-6.23L82.89,187a8,8,0,0,0-2.64-5.1,74.11,74.11,0,0,1-6.14-6.14,8,8,0,0,0-5.1-2.64L46.43,170.6a91.32,91.32,0,0,1-6.23-15l14.19-17.74a8,8,0,0,0,1.74-5.48,73.93,73.93,0,0,1,0-8.68,8,8,0,0,0-1.74-5.48L40.2,100.45a91.57,91.57,0,0,1,6.23-15L69,82.89a8,8,0,0,0,5.1-2.64,74.11,74.11,0,0,1,6.14-6.14A8,8,0,0,0,82.89,69L85.4,46.43a91.32,91.32,0,0,1,15-6.23l17.74,14.19a8,8,0,0,0,5.48,1.74,73.93,73.93,0,0,1,8.68,0,8,8,0,0,0,5.48-1.74L155.55,40.2a91.57,91.57,0,0,1,15,6.23L173.11,69a8,8,0,0,0,2.64,5.1,74.11,74.11,0,0,1,6.14,6.14,8,8,0,0,0,5.1,2.64l22.58,2.51a91.32,91.32,0,0,1,6.23,15l-14.19,17.74A8,8,0,0,0,199.87,123.66Z"/></symbol>
  <symbol id="ph-grid-four" viewBox="0 0 256 256"><path d="M200,40H56A16,16,0,0,0,40,56V200a16,16,0,0,0,16,16H200a16,16,0,0,0,16-16V56A16,16,0,0,0,200,40Zm0,80H136V56h64ZM120,56v64H56V56ZM56,136h64v64H56Zm144,64H136V136h64v64Z"/></symbol>
  <symbol id="ph-headphones" viewBox="0 0 256 256"><path d="M201.89,54.66A103.43,103.43,0,0,0,128.79,24H128A104,104,0,0,0,24,128v56a24,24,0,0,0,24,24H64a24,24,0,0,0,24-24V144a24,24,0,0,0-24-24H40.36A88,88,0,0,1,128,40h.67a87.71,87.71,0,0,1,87,80H192a24,24,0,0,0-24,24v40a24,24,0,0,0,24,24h16a24,24,0,0,0,24-24V128A103.41,103.41,0,0,0,201.89,54.66ZM64,136a8,8,0,0,1,8,8v40a8,8,0,0,1-8,8H48a8,8,0,0,1-8-8V136Zm152,48a8,8,0,0,1-8,8H192a8,8,0,0,1-8-8V144a8,8,0,0,1,8-8h24Z"/></symbol>
  <symbol id="ph-house" viewBox="0 0 256 256"><path d="M219.31,108.68l-80-80a16,16,0,0,0-22.62,0l-80,80A15.87,15.87,0,0,0,32,120v96a8,8,0,0,0,8,8h64a8,8,0,0,0,8-8V160h32v56a8,8,0,0,0,8,8h64a8,8,0,0,0,8-8V120A15.87,15.87,0,0,0,219.31,108.68ZM208,208H160V152a8,8,0,0,0-8-8H104a8,8,0,0,0-8,8v56H48V120l80-80,80,80Z"/></symbol>
  <symbol id="ph-house-line" viewBox="0 0 256 256"><path d="M240,208H224V136l2.34,2.34A8,8,0,0,0,237.66,127L139.31,28.68a16,16,0,0,0-22.62,0L18.34,127a8,8,0,0,0,11.32,11.31L32,136v72H16a8,8,0,0,0,0,16H240a8,8,0,0,0,0-16ZM48,120l80-80,80,80v88H160V152a8,8,0,0,0-8-8H104a8,8,0,0,0-8,8v56H48Zm96,88H112V160h32Z"/></symbol>
  <symbol id="ph-info" viewBox="0 0 256 256"><path d="M128,24A104,104,0,1,0,232,128,104.11,104.11,0,0,0,128,24Zm0,192a88,88,0,1,1,88-88A88.1,88.1,0,0,1,128,216Zm16-40a8,8,0,0,1-8,8,16,16,0,0,1-16-16V128a8,8,0,0,1,0-16,16,16,0,0,1,16,16v40A8,8,0,0,1,144,176ZM112,84a12,12,0,1,1,12,12A12,12,0,0,1,112,84Z"/></symbol>
  <symbol id="ph-instagram-logo" viewBox="0 0 256 256"><path d="M128,80a48,48,0,1,0,48,48A48.05,48.05,0,0,0,128,80Zm0,80a32,32,0,1,1,32-32A32,32,0,0,1,128,160ZM176,24H80A56.06,56.06,0,0,0,24,80v96a56.06,56.06,0,0,0,56,56h96a56.06,56.06,0,0,0,56-56V80A56.06,56.06,0,0,0,176,24Zm40,152a40,40,0,0,1-40,40H80a40,40,0,0,1-40-40V80A40,40,0,0,1,80,40h96a40,40,0,0,1,40,40ZM192,76a12,12,0,1,1-12-12A12,12,0,0,1,192,76Z"/></symbol>
  <symbol id="ph-keyboard" viewBox="0 0 256 256"><path d="M224,48H32A16,16,0,0,0,16,64V192a16,16,0,0,0,16,16H224a16,16,0,0,0,16-16V64A16,16,0,0,0,224,48Zm0,144H32V64H224V192Zm-16-64a8,8,0,0,1-8,8H56a8,8,0,0,1,0-16H200A8,8,0,0,1,208,128Zm0-32a8,8,0,0,1-8,8H56a8,8,0,0,1,0-16H200A8,8,0,0,1,208,96ZM72,160a8,8,0,0,1-8,8H56a8,8,0,0,1,0-16h8A8,8,0,0,1,72,160Zm96,0a8,8,0,0,1-8,8H96a8,8,0,0,1,0-16h64A8,8,0,0,1,168,160Zm40,0a8,8,0,0,1-8,8h-8a8,8,0,0,1,0-16h8A8,8,0,0,1,208,160Z"/></symbol>
  <symbol id="ph-laptop" viewBox="0 0 256 256"><path d="M232,168h-8V72a24,24,0,0,0-24-24H56A24,24,0,0,0,32,72v96H24a8,8,0,0,0-8,8v16a24,24,0,0,0,24,24H216a24,24,0,0,0,24-24V176A8,8,0,0,0,232,168ZM48,72a8,8,0,0,1,8-8H200a8,8,0,0,1,8,8v96H48ZM224,192a8,8,0,0,1-8,8H40a8,8,0,0,1-8-8v-8H224ZM152,88a8,8,0,0,1-8,8H112a8,8,0,0,1,0-16h32A8,8,0,0,1,152,88Z"/></symbol>
  <symbol id="ph-list" viewBox="0 0 256 256"><path d="M224,128a8,8,0,0,1-8,8H40a8,8,0,0,1,0-16H216A8,8,0,0,1,224,128ZM40,72H216a8,8,0,0,0,0-16H40a8,8,0,0,0,0,16ZM216,184H40a8,8,0,0,0,0,16H216a8,8,0,0,0,0-16Z"/></symbol>
  <symbol id="ph-lock" viewBox="0 0 256 256"><path d="M208,80H176V56a48,48,0,0,0-96,0V80H48A16,16,0,0,0,32,96V208a16,16,0,0,0,16,16H208a16,16,0,0,0,16-16V96A16,16,0,0,0,208,80ZM96,56a32,32,0,0,1,64,0V80H96ZM208,208H48V96H208V208Zm-68-56a12,12,0,1,1-12-12A12,12,0,0,1,140,152Z"/></symbol>
  <symbol id="ph-magnifying-glass" viewBox="0 0 256 256"><path d="M229.66,218.34l-50.07-50.06a88.11,88.11,0,1,0-11.31,11.31l50.06,50.07a8,8,0,0,0,11.32-11.32ZM40,112a72,72,0,1,1,72,72A72.08,72.08,0,0,1,40,112Z"/></symbol>
  <symbol id="ph-map-pin" viewBox="0 0 256 256"><path d="M128,64a40,40,0,1,0,40,40A40,40,0,0,0,128,64Zm0,64a24,24,0,1,1,24-24A24,24,0,0,1,128,128Zm0-112a88.1,88.1,0,0,0-88,88c0,31.4,14.51,64.68,42,96.25a254.19,254.19,0,0,0,41.45,38.3,8,8,0,0,0,9.18,0A254.19,254.19,0,0,0,174,200.25c27.45-31.57,42-64.85,42-96.25A88.1,88.1,0,0,0,128,16Zm0,206c-16.53-13-72-60.75-72-118a72,72,0,0,1,144,0C200,161.23,144.53,209,128,222Z"/></symbol>
  <symbol id="ph-monitor" viewBox="0 0 256 256"><path d="M208,40H48A24,24,0,0,0,24,64V176a24,24,0,0,0,24,24H208a24,24,0,0,0,24-24V64A24,24,0,0,0,208,40Zm8,136a8,8,0,0,1-8,8H48a8,8,0,0,1-8-8V64a8,8,0,0,1,8-8H208a8,8,0,0,1,8,8Zm-48,48a8,8,0,0,1-8,8H96a8,8,0,0,1,0-16h64A8,8,0,0,1,168,224Z"/></symbol>
  <symbol id="ph-package" viewBox="0 0 256 256"><path d="M223.68,66.15,135.68,18a15.88,15.88,0,0,0-15.36,0l-88,48.17a16,16,0,0,0-8.32,14v95.64a16,16,0,0,0,8.32,14l88,48.17a15.88,15.88,0,0,0,15.36,0l88-48.17a16,16,0,0,0,8.32-14V80.18A16,16,0,0,0,223.68,66.15ZM128,32l80.34,44-29.77,16.3-80.35-44ZM128,120,47.66,76l33.9-18.56,80.34,44ZM40,90l80,43.78v85.79L40,175.82Zm176,85.78h0l-80,43.79V133.82l32-17.51V152a8,8,0,0,0,16,0V107.55L216,90v85.77Z"/></symbol>
  <symbol id="ph-pencil-simple" viewBox="0 0 256 256"><path d="M227.31,73.37,182.63,28.68a16,16,0,0,0-22.63,0L36.69,152A15.86,15.86,0,0,0,32,163.31V208a16,16,0,0,0,16,16H92.69A15.86,15.86,0,0,0,104,219.31L227.31,96a16,16,0,0,0,0-22.63ZM92.69,208H48V163.31l88-88L180.69,120ZM192,108.68,147.31,64l24-24L216,84.68Z"/></symbol>
  <symbol id="ph-phone" viewBox="0 0 256 256"><path d="M222.37,158.46l-47.11-21.11-.13-.06a16,16,0,0,0-15.17,1.4,8.12,8.12,0,0,0-.75.56L134.87,160c-15.42-7.49-31.34-23.29-38.83-38.51l20.78-24.71c.2-.25.39-.5.57-.77a16,16,0,0,0,1.32-15.06l0-.12L97.54,33.64a16,16,0,0,0-16.62-9.52A56.26,56.26,0,0,0,32,80c0,79.4,64.6,144,144,144a56.26,56.26,0,0,0,55.88-48.92A16,16,0,0,0,222.37,158.46ZM176,208A128.14,128.14,0,0,1,48,80,40.2,40.2,0,0,1,82.87,40a.61.61,0,0,0,0,.12l21,47L83.2,111.86a6.13,6.13,0,0,0-.57.77,16,16,0,0,0-1,15.7c9.06,18.53,27.73,37.06,46.46,46.11a16,16,0,0,0,15.75-1.14,8.44,8.44,0,0,0,.74-.56L168.89,152l47,21.05h0s.08,0,.11,0A40.21,40.21,0,0,1,176,208Z"/></symbol>
  <symbol id="ph-plant" viewBox="0 0 256 256"><path d="M247.63,47.89a8,8,0,0,0-7.52-7.52c-51.76-3-93.32,12.74-111.18,42.22-11.8,19.49-11.78,43.16-.16,65.74a71.34,71.34,0,0,0-14.17,27L98.33,159c7.82-16.33,7.52-33.35-1-47.49-13.2-21.79-43.67-33.47-81.5-31.25a8,8,0,0,0-7.52,7.52c-2.23,37.83,9.46,68.3,31.25,81.5A45.82,45.82,0,0,0,63.44,176,54.58,54.58,0,0,0,87,170.33l25,25V224a8,8,0,0,0,16,0V194.51a55.61,55.61,0,0,1,12.27-35,73.91,73.91,0,0,0,33.31,8.4,60.9,60.9,0,0,0,31.83-8.86C234.89,141.21,250.67,99.65,247.63,47.89ZM47.81,155.6C32.47,146.31,23.79,124.32,24,96c28.32-.24,50.31,8.47,59.6,23.81,4.85,8,5.64,17.33,2.46,26.94L61.65,122.34a8,8,0,0,0-11.31,11.31l24.41,24.41C65.14,161.24,55.82,160.45,47.81,155.6Zm149.31-10.22c-13.4,8.11-29.15,8.73-45.15,2l53.69-53.7a8,8,0,0,0-11.31-11.31L140.65,136c-6.76-16-6.15-31.76,2-45.15,13.94-23,47-35.82,89.33-34.83C232.94,98.34,220.14,131.44,197.12,145.38Z"/></symbol>
  <symbol id="ph-plug" viewBox="0 0 256 256"><path d="M237.66,66.34a8,8,0,0,0-11.32,0L192,100.69,155.31,64l34.35-34.34a8,8,0,1,0-11.32-11.32L144,52.69,117.66,26.34a8,8,0,0,0-11.32,11.32L112.69,44l-53,53a40,40,0,0,0,0,56.57l15.71,15.71L26.34,218.34a8,8,0,0,0,11.32,11.32l49.09-49.09,15.71,15.71a40,40,0,0,0,56.57,0l53-53,6.34,6.35a8,8,0,0,0,11.32-11.32L203.31,112l34.35-34.34A8,8,0,0,0,237.66,66.34ZM147.72,185a24,24,0,0,1-33.95,0L71,142.23a24,24,0,0,1,0-33.95l53-53L200.69,132Z"/></symbol>
  <symbol id="ph-rocket-launch" viewBox="0 0 256 256"><path d="M223.85,47.12a16,16,0,0,0-15-15c-12.58-.75-44.73.4-71.41,27.07L132.69,64H74.36A15.91,15.91,0,0,0,63,68.68L28.7,103a16,16,0,0,0,9.07,27.16l38.47,5.37,44.21,44.21,5.37,38.49a15.94,15.94,0,0,0,10.78,12.92,16.11,16.11,0,0,0,5.1.83A15.91,15.91,0,0,0,153,227.3L187.32,193A15.91,15.91,0,0,0,192,181.64V123.31l4.77-4.77C223.45,91.86,224.6,59.71,223.85,47.12ZM74.36,80h42.33L77.16,119.52,40,114.34Zm74.41-9.45a76.65,76.65,0,0,1,59.11-22.47,76.46,76.46,0,0,1-22.42,59.16L128,164.68,91.32,128ZM176,181.64,141.67,216l-5.19-37.17L176,139.31Zm-74.16,9.5C97.34,201,82.29,224,40,224a8,8,0,0,1-8-8c0-42.29,23-57.34,32.86-61.85a8,8,0,0,1,6.64,14.56c-6.43,2.93-20.62,12.36-23.12,38.91,26.55-2.5,36-16.69,38.91-23.12a8,8,0,1,1,14.56,6.64Z"/></symbol>
  <symbol id="ph-rows" viewBox="0 0 256 256"><path d="M208,136H48a16,16,0,0,0-16,16v40a16,16,0,0,0,16,16H208a16,16,0,0,0,16-16V152A16,16,0,0,0,208,136Zm0,56H48V152H208v40Zm0-144H48A16,16,0,0,0,32,64v40a16,16,0,0,0,16,16H208a16,16,0,0,0,16-16V64A16,16,0,0,0,208,48Zm0,56H48V64H208v40Z"/></symbol>
  <symbol id="ph-shopping-bag-open" viewBox="0 0 256 256"><path d="M216,40H40A16,16,0,0,0,24,56V200a16,16,0,0,0,16,16H216a16,16,0,0,0,16-16V56A16,16,0,0,0,216,40Zm0,16V72H40V56Zm0,144H40V88H216V200Zm-40-88a48,48,0,0,1-96,0,8,8,0,0,1,16,0,32,32,0,0,0,64,0,8,8,0,0,1,16,0Z"/></symbol>
  <symbol id="ph-shopping-cart" viewBox="0 0 256 256"><path d="M230.14,58.87A8,8,0,0,0,224,56H62.68L56.6,22.57A8,8,0,0,0,48.73,16H24a8,8,0,0,0,0,16h18L67.56,172.29a24,24,0,0,0,5.33,11.27,28,28,0,1,0,44.4,8.44h45.42A27.75,27.75,0,0,0,160,204a28,28,0,1,0,28-28H91.17a8,8,0,0,1-7.87-6.57L80.13,152h116a24,24,0,0,0,23.61-19.71l12.16-66.86A8,8,0,0,0,230.14,58.87ZM104,204a12,12,0,1,1-12-12A12,12,0,0,1,104,204Zm96,0a12,12,0,1,1-12-12A12,12,0,0,1,200,204Zm4-74.57A8,8,0,0,1,196.1,136H77.22L65.59,72H214.41Z"/></symbol>
  <symbol id="ph-sign-out" viewBox="0 0 256 256"><path d="M120,216a8,8,0,0,1-8,8H48a8,8,0,0,1-8-8V40a8,8,0,0,1,8-8h64a8,8,0,0,1,0,16H56V208h56A8,8,0,0,1,120,216Zm109.66-93.66-40-40a8,8,0,0,0-11.32,11.32L204.69,120H112a8,8,0,0,0,0,16h92.69l-26.35,26.34a8,8,0,0,0,11.32,11.32l40-40A8,8,0,0,0,229.66,122.34Z"/></symbol>
  <symbol id="ph-siren" viewBox="0 0 256 256"><path d="M120,16V8a8,8,0,0,1,16,0v8a8,8,0,0,1-16,0Zm80,32a8,8,0,0,0,5.66-2.34l8-8a8,8,0,0,0-11.32-11.32l-8,8A8,8,0,0,0,200,48ZM50.34,45.66A8,8,0,0,0,61.66,34.34l-8-8A8,8,0,0,0,42.34,37.66Zm87,26.45a8,8,0,1,0-2.64,15.78C153.67,91.08,168,108.32,168,128a8,8,0,0,0,16,0C184,100.6,163.93,76.57,137.32,72.11ZM232,176v24a16,16,0,0,1-16,16H40a16,16,0,0,1-16-16V176a16,16,0,0,1,16-16V128a88,88,0,0,1,88.67-88c48.15.36,87.33,40.29,87.33,89v31A16,16,0,0,1,232,176ZM56,160H200V129c0-40-32.05-72.71-71.45-73H128a72,72,0,0,0-72,72Zm160,40V176H40v24H216Z"/></symbol>
  <symbol id="ph-squares-four" viewBox="0 0 256 256"><path d="M104,40H56A16,16,0,0,0,40,56v48a16,16,0,0,0,16,16h48a16,16,0,0,0,16-16V56A16,16,0,0,0,104,40Zm0,64H56V56h48v48Zm96-64H152a16,16,0,0,0-16,16v48a16,16,0,0,0,16,16h48a16,16,0,0,0,16-16V56A16,16,0,0,0,200,40Zm0,64H152V56h48v48Zm-96,32H56a16,16,0,0,0-16,16v48a16,16,0,0,0,16,16h48a16,16,0,0,0,16-16V152A16,16,0,0,0,104,136Zm0,64H56V152h48v48Zm96-64H152a16,16,0,0,0-16,16v48a16,16,0,0,0,16,16h48a16,16,0,0,0,16-16V152A16,16,0,0,0,200,136Zm0,64H152V152h48v48Z"/></symbol>
  <symbol id="ph-star" viewBox="0 0 256 256"><path d="M239.18,97.26A16.38,16.38,0,0,0,224.92,86l-59-4.76L143.14,26.15a16.36,16.36,0,0,0-30.27,0L90.11,81.23,31.08,86a16.46,16.46,0,0,0-9.37,28.86l45,38.83L53,211.75a16.38,16.38,0,0,0,24.5,17.82L128,198.49l50.53,31.08A16.4,16.4,0,0,0,203,211.75l-13.76-58.07,45-38.83A16.43,16.43,0,0,0,239.18,97.26Zm-15.34,5.47-48.7,42a8,8,0,0,0-2.56,7.91l14.88,62.8a.37.37,0,0,1-.17.48c-.18.14-.23.11-.38,0l-54.72-33.65a8,8,0,0,0-8.38,0L69.09,215.94c-.15.09-.19.12-.38,0a.37.37,0,0,1-.17-.48l14.88-62.8a8,8,0,0,0-2.56-7.91l-48.7-42c-.12-.1-.23-.19-.13-.5s.18-.27.33-.29l63.92-5.16A8,8,0,0,0,103,91.86l24.62-59.61c.08-.17.11-.25.35-.25s.27.08.35.25L153,91.86a8,8,0,0,0,6.75,4.92l63.92,5.16c.15,0,.24,0,.33.29S224,102.63,223.84,102.73Z"/></symbol>
  <symbol id="ph-star-regular" viewBox="0 0 256 256"><path d="M239.18,97.26A16.38,16.38,0,0,0,224.92,86l-59-4.76L143.14,26.15a16.36,16.36,0,0,0-30.27,0L90.11,81.23,31.08,86a16.46,16.46,0,0,0-9.37,28.86l45,38.83L53,211.75a16.38,16.38,0,0,0,24.5,17.82L128,198.49l50.53,31.08A16.4,16.4,0,0,0,203,211.75l-13.76-58.07,45-38.83A16.43,16.43,0,0,0,239.18,97.26Zm-15.34,5.47-48.7,42a8,8,0,0,0-2.56,7.91l14.88,62.8a.37.37,0,0,1-.17.48c-.18.14-.23.11-.38,0l-54.72-33.65a8,8,0,0,0-8.38,0L69.09,215.94c-.15.09-.19.12-.38,0a.37.37,0,0,1-.17-.48l14.88-62.8a8,8,0,0,0-2.56-7.91l-48.7-42c-.12-.1-.23-.19-.13-.5s.18-.27.33-.29l63.92-5.16A8,8,0,0,0,103,91.86l24.62-59.61c.08-.17.11-.25.35-.25s.27.08.35.25L153,91.86a8,8,0,0,0,6.75,4.92l63.92,5.16c.15,0,.24,0,.33.29S224,102.63,223.84,102.73Z"/></symbol>
  <symbol id="ph-tiktok-logo" viewBox="0 0 256 256"><path d="M224,72a48.05,48.05,0,0,1-48-48,8,8,0,0,0-8-8H128a8,8,0,0,0-8,8V156a20,20,0,1,1-28.57-18.08A8,8,0,0,0,96,130.69V88a8,8,0,0,0-9.4-7.88C50.91,86.48,24,119.1,24,156a76,76,0,0,0,152,0V116.29A103.25,103.25,0,0,0,224,128a8,8,0,0,0,8-8V80A8,8,0,0,0,224,72Zm-8,39.64a87.19,87.19,0,0,1-43.33-16.15A8,8,0,0,0,160,102v54a60,60,0,0,1-120,0c0-25.9,16.64-49.13,40-57.6v27.67A36,36,0,1,0,136,156V32h24.5A64.14,64.14,0,0,0,216,87.5Z"/></symbol>
  <symbol id="ph-trash" viewBox="0 0 256 256"><path d="M216,48H176V40a24,24,0,0,0-24-24H104A24,24,0,0,0,80,40v8H40a8,8,0,0,0,0,16h8V208a16,16,0,0,0,16,16H192a16,16,0,0,0,16-16V64h8a8,8,0,0,0,0-16ZM96,40a8,8,0,0,1,8-8h48a8,8,0,0,1,8,8v8H96Zm96,168H64V64H192ZM112,104v64a8,8,0,0,1-16,0V104a8,8,0,0,1,16,0Zm48,0v64a8,8,0,0,1-16,0V104a8,8,0,0,1,16,0Z"/></symbol>
  <symbol id="ph-upload-simple" viewBox="0 0 256 256"><path d="M224,144v64a8,8,0,0,1-8,8H40a8,8,0,0,1-8-8V144a8,8,0,0,1,16,0v56H208V144a8,8,0,0,1,16,0ZM93.66,77.66,120,51.31V144a8,8,0,0,0,16,0V51.31l26.34,26.35a8,8,0,0,0,11.32-11.32l-40-40a8,8,0,0,0-11.32,0l-40,40A8,8,0,0,0,93.66,77.66Z"/></symbol>
  <symbol id="ph-user-circle" viewBox="0 0 256 256"><path d="M128,24A104,104,0,1,0,232,128,104.11,104.11,0,0,0,128,24ZM74.08,197.5a64,64,0,0,1,107.84,0,87.83,87.83,0,0,1-107.84,0ZM96,120a32,32,0,1,1,32,32A32,32,0,0,1,96,120Zm97.76,66.41a79.66,79.66,0,0,0-36.06-28.75,48,48,0,1,0-59.4,0,79.66,79.66,0,0,0-36.06,28.75,88,88,0,1,1,131.52,0Z"/></symbol>
  <symbol id="ph-users" viewBox="0 0 256 256"><path d="M117.25,157.92a60,60,0,1,0-66.5,0A95.83,95.83,0,0,0,3.53,195.63a8,8,0,1,0,13.4,8.74,80,80,0,0,1,134.14,0,8,8,0,0,0,13.4-8.74A95.83,95.83,0,0,0,117.25,157.92ZM40,108a44,44,0,1,1,44,44A44.05,44.05,0,0,1,40,108Zm210.14,98.7a8,8,0,0,1-11.07-2.33A79.83,79.83,0,0,0,172,168a8,8,0,0,1,0-16,44,44,0,1,0-16.34-84.87,8,8,0,1,1-5.94-14.85,60,60,0,0,1,55.53,105.64,95.83,95.83,0,0,1,47.22,37.71A8,8,0,0,1,250.14,206.7Z"/></symbol>
  <symbol id="ph-warning" viewBox="0 0 256 256"><path d="M236.8,188.09,149.35,36.22h0a24.76,24.76,0,0,0-42.7,0L19.2,188.09a23.51,23.51,0,0,0,0,23.72A24.35,24.35,0,0,0,40.55,224h174.9a24.35,24.35,0,0,0,21.33-12.19A23.51,23.51,0,0,0,236.8,188.09ZM222.93,203.8a8.5,8.5,0,0,1-7.48,4.2H40.55a8.5,8.5,0,0,1-7.48-4.2,7.59,7.59,0,0,1,0-7.72L120.52,44.21a8.75,8.75,0,0,1,15,0l87.45,151.87A7.59,7.59,0,0,1,222.93,203.8ZM120,144V104a8,8,0,0,1,16,0v40a8,8,0,0,1-16,0Zm20,36a12,12,0,1,1-12-12A12,12,0,0,1,140,180Z"/></symbol>
  <symbol id="ph-watch" viewBox="0 0 256 256"><path d="M208,128a79.94,79.94,0,0,0-32.7-64.47l-6.24-34.38A16,16,0,0,0,153.32,16H102.68A16,16,0,0,0,86.94,29.15L80.7,63.53a79.9,79.9,0,0,0,0,128.94l6.24,34.38A16,16,0,0,0,102.68,240h50.64a16,16,0,0,0,15.74-13.15l6.24-34.38A79.94,79.94,0,0,0,208,128ZM102.68,32h50.64l3.91,21.55a79.75,79.75,0,0,0-58.46,0ZM64,128a64,64,0,1,1,64,64A64.07,64.07,0,0,1,64,128Zm89.32,96H102.68l-3.91-21.55a79.75,79.75,0,0,0,58.46,0ZM120,128V88a8,8,0,0,1,16,0v32h32a8,8,0,0,1,0,16H128A8,8,0,0,1,120,128Z"/></symbol>
  <symbol id="ph-whatsapp-logo" viewBox="0 0 256 256"><path d="M187.58,144.84l-32-16a8,8,0,0,0-8,.5l-14.69,9.8a40.55,40.55,0,0,1-16-16l9.8-14.69a8,8,0,0,0,.5-8l-16-32A8,8,0,0,0,104,64a40,40,0,0,0-40,40,88.1,88.1,0,0,0,88,88,40,40,0,0,0,40-40A8,8,0,0,0,187.58,144.84ZM152,176a72.08,72.08,0,0,1-72-72A24,24,0,0,1,99.29,80.46l11.48,23L101,118a8,8,0,0,0-.73,7.51,56.47,56.47,0,0,0,30.15,30.15A8,8,0,0,0,138,155l14.61-9.74,23,11.48A24,24,0,0,1,152,176ZM128,24A104,104,0,0,0,36.18,176.88L24.83,210.93a16,16,0,0,0,20.24,20.24l34.05-11.35A104,104,0,1,0,128,24Zm0,192a87.87,87.87,0,0,1-44.06-11.81,8,8,0,0,0-6.54-.67L40,216,52.47,178.6a8,8,0,0,0-.66-6.54A88,88,0,1,1,128,216Z"/></symbol>
  <symbol id="ph-x" viewBox="0 0 256 256"><path d="M205.66,194.34a8,8,0,0,1-11.32,11.32L128,139.31,61.66,205.66a8,8,0,0,1-11.32-11.32L116.69,128,50.34,61.66A8,8,0,0,1,61.66,50.34L128,116.69l66.34-66.35a8,8,0,0,1,11.32,11.32L139.31,128Z"/></symbol>
  <symbol id="ph-x-circle" viewBox="0 0 256 256"><path d="M165.66,101.66,139.31,128l26.35,26.34a8,8,0,0,1-11.32,11.32L128,139.31l-26.34,26.35a8,8,0,0,1-11.32-11.32L116.69,128,90.34,101.66a8,8,0,0,1,11.32-11.32L128,116.69l26.34-26.35a8,8,0,0,1,11.32,11.32ZM232,128A104,104,0,1,1,128,24,104.11,104.11,0,0,1,232,128Zm-16,0a88,88,0,1,0-88,88A88.1,88.1,0,0,0,216,128Z"/></symbol>
  <symbol id="ph-x-logo" viewBox="0 0 256 256"><path d="M214.75,211.71l-62.6-98.38,61.77-67.95a8,8,0,0,0-11.84-10.76L143.24,99.34,102.75,35.71A8,8,0,0,0,96,32H48a8,8,0,0,0-6.75,12.3l62.6,98.37-61.77,68a8,8,0,1,0,11.84,10.76l58.84-64.72,40.49,63.63A8,8,0,0,0,160,224h48a8,8,0,0,0,6.75-12.29ZM164.39,208,62.57,48h29L193.43,208Z"/></symbol>
</svg>
